<svg width="20" height="20" viewBox="0 0 20 20" fill="none" xmlns="http://www.w3.org/2000/svg">
<mask id="mask0_4_1874" style="mask-type:alpha" maskUnits="userSpaceOnUse" x="1" y="1" width="18" height="18">
<rect x="1" y="1" width="18" height="18" fill="currentColor"/>
</mask>
<g mask="url(#mask0_4_1874)">
<path d="M9.9999 11.0056L12.1031 13.1088C12.2496 13.2553 12.4172 13.3246 12.606 13.3169C12.7947 13.3091 12.9623 13.2321 13.1086 13.0857C13.2551 12.9392 13.3284 12.7716 13.3284 12.5828C13.3284 12.3941 13.2551 12.2268 13.1086 12.0809L11.0055 9.99065L13.1086 7.8959C13.2551 7.75002 13.3284 7.58271 13.3284 7.39396C13.3284 7.20521 13.2551 7.03765 13.1086 6.89127C12.9623 6.74477 12.7947 6.67152 12.606 6.67152C12.4172 6.67152 12.2496 6.74477 12.1031 6.89127L9.9999 8.99446L7.89671 6.89127C7.75021 6.74477 7.58646 6.67152 7.40546 6.67152C7.22446 6.67152 7.06071 6.74477 6.91421 6.89127C6.76784 7.03765 6.69465 7.20521 6.69465 7.39396C6.69465 7.58271 6.76734 7.75033 6.91271 7.89683L8.99434 10L6.89115 12.1032C6.74465 12.2497 6.67527 12.4135 6.68302 12.5945C6.69077 12.7755 6.76784 12.9392 6.91421 13.0857C7.06071 13.2321 7.22834 13.3053 7.41709 13.3053C7.60584 13.3053 7.7729 13.2326 7.91827 13.0872L9.9999 11.0056ZM10.0051 17.3525C8.99027 17.3525 8.03634 17.1612 7.14334 16.7787C6.25046 16.3962 5.46915 15.8701 4.7994 15.2005C4.12977 14.5308 3.60371 13.7497 3.22121 12.8573C2.83871 11.965 2.64746 11.0096 2.64746 9.9914C2.64746 8.97327 2.83871 8.02083 3.22121 7.13408C3.60371 6.24746 4.12977 5.46927 4.7994 4.79952C5.46915 4.1299 6.25021 3.60383 7.14259 3.22133C8.03496 2.83883 8.99027 2.64758 10.0085 2.64758C11.0266 2.64758 11.9791 2.83883 12.8658 3.22133C13.7525 3.60383 14.5306 4.1299 15.2004 4.79952C15.87 5.46927 16.3961 6.2489 16.7786 7.1384C17.1611 8.0279 17.3523 8.98002 17.3523 9.99477C17.3523 11.0096 17.1611 11.9636 16.7786 12.8566C16.3961 13.7495 15.87 14.5308 15.2004 15.2005C14.5306 15.8701 13.751 16.3962 12.8615 16.7787C11.972 17.1612 11.0199 17.3525 10.0051 17.3525Z" fill="currentColor"/>
</g>
</svg>
