<svg width="20" height="21" viewBox="0 0 20 21" fill="none" xmlns="http://www.w3.org/2000/svg">
<g id="ph:wallet-fill">
<path id="Vector" d="M16.875 5.5H4.375C4.20924 5.5 4.05027 5.43415 3.93306 5.31694C3.81585 5.19973 3.75 5.04076 3.75 4.875C3.75 4.70924 3.81585 4.55027 3.93306 4.43306C4.05027 4.31585 4.20924 4.25 4.375 4.25H15C15.1658 4.25 15.3247 4.18415 15.4419 4.06694C15.5592 3.94973 15.625 3.79076 15.625 3.625C15.625 3.45924 15.5592 3.30027 15.4419 3.18306C15.3247 3.06585 15.1658 3 15 3H4.375C3.87772 3 3.40081 3.19754 3.04917 3.54917C2.69754 3.90081 2.5 4.37772 2.5 4.875V14.875C2.5 15.3723 2.69754 15.8492 3.04917 16.2008C3.40081 16.5525 3.87772 16.75 4.375 16.75H16.875C17.2065 16.75 17.5245 16.6183 17.7589 16.3839C17.9933 16.1495 18.125 15.8315 18.125 15.5V6.75C18.125 6.41848 17.9933 6.10054 17.7589 5.86612C17.5245 5.6317 17.2065 5.5 16.875 5.5ZM14.0625 11.75C13.8771 11.75 13.6958 11.695 13.5417 11.592C13.3875 11.489 13.2673 11.3426 13.1964 11.1713C13.1254 11 13.1068 10.8115 13.143 10.6296C13.1792 10.4477 13.2685 10.2807 13.3996 10.1496C13.5307 10.0185 13.6977 9.92919 13.8796 9.89301C14.0615 9.85684 14.25 9.87541 14.4213 9.94636C14.5926 10.0173 14.739 10.1375 14.842 10.2917C14.945 10.4458 15 10.6271 15 10.8125C15 11.0611 14.9012 11.2996 14.7254 11.4754C14.5496 11.6512 14.3111 11.75 14.0625 11.75Z" fill="#F4F4F4"/>
</g>
</svg>
