<svg width="41" height="40" viewBox="0 0 41 40" fill="none" xmlns="http://www.w3.org/2000/svg">
<g id="cloud_upload">
<mask id="mask0_44_296" style="mask-type:alpha" maskUnits="userSpaceOnUse" x="0" y="0" width="41" height="40">
<rect id="Bounding box" x="0.5" width="40" height="40" fill="#D9D9D9"/>
</mask>
<g mask="url(#mask0_44_296)">
<path id="cloud_upload_2" d="M19.4529 19.705L16.7021 22.4475C16.5037 22.6556 16.2625 22.7596 15.9783 22.7596C15.6942 22.7596 15.4493 22.6563 15.2438 22.4496C15.0393 22.2488 14.9379 22.0003 14.9396 21.7042C14.9415 21.4078 15.0429 21.1592 15.2438 20.9583L19.5867 16.5983C19.8478 16.3383 20.1525 16.2083 20.5008 16.2083C20.8492 16.2083 21.1533 16.3383 21.4133 16.5983L25.7733 20.9583C25.9742 21.1592 26.0788 21.4029 26.0871 21.6896C26.0951 21.9763 25.9906 22.2208 25.7733 22.4233C25.5725 22.6303 25.3257 22.7308 25.0329 22.725C24.7399 22.7189 24.4896 22.6154 24.2821 22.4146L21.5471 19.705V29.8933C21.5471 30.0214 21.6004 30.1389 21.7071 30.2458C21.814 30.3525 21.9317 30.4058 22.06 30.4058H31.5533C32.7614 30.4058 33.7889 29.9818 34.6358 29.1338C35.4825 28.286 35.9058 27.2604 35.9058 26.0571C35.9058 24.8538 35.4825 23.8286 34.6358 22.9817C33.7889 22.135 32.7601 21.7117 31.5496 21.7117H28.9912V18.2883C28.9912 15.9072 28.1657 13.8657 26.5146 12.1638C24.8632 10.4621 22.8451 9.61126 20.4604 9.61126C18.076 9.61126 16.0533 10.4621 14.3925 12.1638C12.7319 13.8657 11.9017 15.9072 11.9017 18.2883H11.0533C9.42167 18.2883 8.02056 18.8757 6.85 20.0504C5.67944 21.2249 5.09417 22.6607 5.09417 24.3579C5.09417 26.0179 5.68333 27.441 6.86167 28.6271C8.04028 29.8129 9.46319 30.4058 11.1304 30.4058H15.0621C15.3588 30.4058 15.6074 30.5068 15.8079 30.7088C16.0088 30.9104 16.1092 31.1604 16.1092 31.4588C16.1092 31.7568 16.0088 32.0049 15.8079 32.2029C15.6074 32.401 15.3588 32.5 15.0621 32.5H11.1304C8.89097 32.5 6.97611 31.7085 5.38583 30.1254C3.79528 28.5424 3 26.6288 3 24.3846C3 22.3213 3.68222 20.5124 5.04667 18.9579C6.41083 17.4035 8.09403 16.5129 10.0963 16.2863C10.5593 13.7307 11.7707 11.6303 13.7304 9.98501C15.6901 8.33973 17.9617 7.51709 20.545 7.51709C23.51 7.51709 26.0081 8.5682 28.0392 10.6704C30.07 12.7726 31.0854 15.312 31.0854 18.2883V19.6175H31.5983C33.3961 19.6189 34.9125 20.2368 36.1475 21.4713C37.3825 22.7054 38 24.2328 38 26.0533C38 27.8297 37.375 29.3482 36.125 30.6088C34.875 31.8696 33.3618 32.5 31.5854 32.5H22.06C21.3436 32.5 20.73 32.2446 20.2192 31.7338C19.7083 31.2229 19.4529 30.6095 19.4529 29.8933V19.705Z" fill="#0E61FE"/>
</g>
</g>
</svg>
